<?xml version="1.0" encoding="iso-8859-1"?>
<!-- Generator: Adobe Illustrator 19.0.0, SVG Export Plug-In . SVG Version: 6.00 Build 0)  -->
<svg version="1.1" id="Capa_1" xmlns="http://www.w3.org/2000/svg" xmlns:xlink="http://www.w3.org/1999/xlink" x="0px" y="0px"
	 viewBox="0 0 512 512" style="enable-background:new 0 0 512 512;" xml:space="preserve">
<g>
	<path style="fill:#CFA78B;" d="M29.673,270.883c7.746-16.293,23.78-27.882,42.653-29.32V77.478
		c3.589-4.591,5.728-10.37,5.728-16.649c0-14.942-12.113-27.055-27.055-27.055S23.944,45.887,23.944,60.829
		c0,6.279,2.139,12.058,5.729,16.649V270.883z"/>
	<path style="fill:#CFA78B;" d="M439.674,241.563c18.873,1.437,34.907,13.027,42.653,29.32V77.478
		c3.589-4.591,5.729-10.37,5.729-16.649c0-14.942-12.113-27.055-27.055-27.055s-27.055,12.113-27.055,27.055
		c0,6.279,2.139,12.058,5.728,16.649L439.674,241.563L439.674,241.563z"/>
</g>
<g>
	<path style="fill:#9C5F7C;" d="M76.299,241.413h359.402c1.337,0,2.662,0.051,3.974,0.151V91.839
		c-6.553-9.595-17.577-15.894-30.073-15.894h-53.878c-20.098,0-36.392,16.293-36.392,36.392c0-20.099-16.293-36.392-36.392-36.392
		h-53.879c-20.099,0-36.392,16.293-36.392,36.392c0-20.099-16.293-36.392-36.392-36.392h-53.878
		c-12.496,0-23.52,6.298-30.073,15.893v149.725C73.637,241.464,74.962,241.413,76.299,241.413z"/>
	<rect x="24.701" y="321.021" style="fill:#9C5F7C;" width="462.6" height="47.939"/>
</g>
<path style="fill:#E697B4;" d="M487.299,293.012c0-28.497-23.102-51.599-51.599-51.599H76.299
	c-28.497,0-51.599,23.101-51.599,51.599v28.006h462.599V293.012z"/>
<path d="M420.97,282.061c-0.65,0-1.31-0.06-1.95-0.191c-0.64-0.13-1.27-0.32-1.87-0.57s-1.18-0.56-1.73-0.92
	c-0.54-0.37-1.06-0.78-1.52-1.25c-1.859-1.86-2.93-4.43-2.93-7.07c0-0.65,0.07-1.3,0.2-1.95c0.13-0.64,0.32-1.27,0.57-1.87
	s0.56-1.18,0.92-1.73c0.359-0.54,0.779-1.06,1.239-1.52c0.46-0.46,0.98-0.88,1.52-1.24c0.55-0.36,1.13-0.67,1.73-0.92
	c0.601-0.25,1.23-0.44,1.87-0.57c1.29-0.26,2.62-0.26,3.91,0c0.63,0.13,1.26,0.32,1.87,0.57c0.6,0.25,1.18,0.56,1.72,0.92
	c0.55,0.36,1.061,0.78,1.521,1.24s0.88,0.98,1.25,1.52c0.359,0.55,0.67,1.13,0.92,1.73s0.439,1.23,0.57,1.87
	c0.13,0.65,0.189,1.3,0.189,1.95c0,2.64-1.06,5.21-2.93,7.07c-0.46,0.47-0.971,0.88-1.521,1.25c-0.54,0.36-1.12,0.67-1.72,0.92
	c-0.61,0.25-1.24,0.44-1.87,0.57C422.28,282.001,421.63,282.061,420.97,282.061z"/>
<polygon style="fill:#CFA78B;" points="10,478.228 51.307,478.228 51.307,417.734 460.693,417.734 460.693,478.228 502,478.228 
	502,368.956 10,368.956 "/>
<g>
	<path style="fill:#FDF2D3;" d="M224.493,241.413H103.561v-56.758c0-12.105,9.813-21.917,21.917-21.917h77.097
		c12.105,0,21.917,9.813,21.917,21.917L224.493,241.413L224.493,241.413z"/>
	<path style="fill:#FDF2D3;" d="M408.439,241.413H287.507v-56.758c0-12.105,9.813-21.917,21.917-21.917h77.097
		c12.104,0,21.917,9.813,21.917,21.917v56.758H408.439z"/>
</g>
<path d="M502,358.956h-4.7v-65.945c0-8.603-1.773-16.801-4.973-24.245V80.634c3.759-5.913,5.729-12.69,5.729-19.805
	c0-20.432-16.623-37.055-37.055-37.055c-20.433,0-37.056,16.623-37.056,37.055c0,2.604,0.264,5.162,0.783,7.65
	c-4.803-1.657-9.906-2.534-15.127-2.534h-53.879c-14.735,0-27.888,6.905-36.392,17.65c-8.504-10.745-21.656-17.65-36.392-17.65
	h-53.879c-14.735,0-27.888,6.905-36.392,17.65c-8.504-10.745-21.656-17.65-36.392-17.65h-53.879c-5.22,0-10.324,0.877-15.127,2.534
	c0.519-2.488,0.783-5.047,0.783-7.651c0-20.432-16.623-37.055-37.056-37.055c-20.432,0-37.055,16.623-37.055,37.055
	c0,7.115,1.97,13.893,5.729,19.805v188.132c-3.2,7.445-4.973,15.642-4.973,24.245v65.944H10c-5.523,0-10,4.477-10,10v109.272
	c0,5.523,4.477,10,10,10h41.307c5.523,0,10-4.477,10-10v-50.494h389.387v50.494c0,5.523,4.478,10,10,10H502c5.522,0,10-4.477,10-10
	v-109.27C512,363.434,507.522,358.956,502,358.956z M34.7,293.012c0-3.787,0.509-7.457,1.462-10.946H380.21c5.522,0,10-4.477,10-10
	s-4.478-10-10-10H48.529c7.111-6.387,16.426-10.366,26.65-10.637c0.044-0.001,0.087-0.002,0.131-0.003
	c0.121-0.003,0.242-0.005,0.363-0.007c0.046-0.001,0.092-0.001,0.139-0.002c0.162-0.002,0.324-0.003,0.486-0.003H435.7
	c0.162,0,0.324,0.001,0.486,0.003c0.046,0.001,0.092,0.001,0.139,0.002c0.121,0.002,0.242,0.004,0.363,0.007
	c0.044,0.001,0.087,0.002,0.131,0.003c3.714,0.098,7.308,0.686,10.721,1.701c0.016,0.005,0.032,0.01,0.048,0.014
	c0.156,0.046,0.311,0.094,0.466,0.142c0.003,0.001,0.006,0.002,0.01,0.003c0.147,0.046,0.294,0.093,0.44,0.14
	c0.023,0.007,0.046,0.015,0.068,0.022c0.151,0.049,0.302,0.099,0.452,0.15c0.005,0.002,0.011,0.004,0.017,0.006
	c0.141,0.048,0.281,0.096,0.421,0.146c0.028,0.01,0.056,0.019,0.083,0.029c0.148,0.052,0.295,0.105,0.443,0.159
	c0.001,0.001,0.003,0.001,0.004,0.002c0.148,0.054,0.296,0.11,0.443,0.166c0.017,0.006,0.034,0.013,0.051,0.019
	c15.66,5.975,26.813,21.151,26.813,38.884v18.005H34.7V293.012z M214.493,231.413H113.562v-46.758
	c0-6.571,5.346-11.917,11.917-11.917h77.098c6.571,0,11.917,5.346,11.917,11.917L214.493,231.413L214.493,231.413z M398.439,231.413
	H297.507v-46.758c0-6.571,5.346-11.917,11.917-11.917h77.098c6.571,0,11.917,5.346,11.917,11.917L398.439,231.413L398.439,231.413z
	 M461.001,43.774c9.404,0,17.055,7.651,17.055,17.055c0,3.845-1.247,7.472-3.607,10.491c-1.375,1.758-2.122,3.926-2.122,6.159
	v166.022c-2.214-1.637-4.535-3.126-6.948-4.455c-4.872-2.69-10.146-4.739-15.706-6.034V77.478c0-2.232-0.747-4.4-2.122-6.159
	c-2.359-3.019-3.606-6.646-3.606-10.491C443.945,51.425,451.597,43.774,461.001,43.774z M156.277,85.945
	c14.553,0,26.392,11.839,26.392,26.392c0,5.523,4.478,10,10,10c5.523,0,10-4.477,10-10c0-14.552,11.839-26.392,26.392-26.392h53.879
	c14.553,0,26.392,11.839,26.392,26.392c0,5.523,4.478,10,10,10s10-4.477,10-10c0-14.552,11.839-26.392,26.392-26.392h53.879
	c7.768,0,15.081,3.415,20.072,9.256v136.212H418.44v-46.758c0-17.599-14.318-31.917-31.917-31.917h-77.098
	c-17.599,0-31.917,14.318-31.917,31.917v46.758h-43.014v-46.758c0-17.599-14.318-31.917-31.917-31.917h-77.098
	c-17.599,0-31.917,14.318-31.917,31.917v46.758H82.326V95.201c4.992-5.842,12.305-9.256,20.072-9.256H156.277z M50.999,43.774
	c9.404,0,17.056,7.651,17.056,17.055c0,3.845-1.247,7.472-3.607,10.491c-1.375,1.758-2.122,3.926-2.122,6.159v155.532
	c-5.388,1.254-10.507,3.218-15.252,5.786c-2.576,1.391-5.049,2.962-7.401,4.702V77.478c0-2.232-0.747-4.4-2.122-6.159
	c-2.359-3.019-3.606-6.646-3.606-10.491C33.944,51.425,41.595,43.774,50.999,43.774z M34.7,331.017h442.6v27.939H34.7V331.017z
	 M492,468.228h-21.307v-50.494c0-5.523-4.478-10-10-10H51.307c-5.522,0-10,4.477-10,10v50.494H20v-89.272h472V468.228z"/>
<g>
</g>
<g>
</g>
<g>
</g>
<g>
</g>
<g>
</g>
<g>
</g>
<g>
</g>
<g>
</g>
<g>
</g>
<g>
</g>
<g>
</g>
<g>
</g>
<g>
</g>
<g>
</g>
<g>
</g>
</svg>
