<?xml version="1.0" encoding="iso-8859-1"?>
<!-- Generator: Adobe Illustrator 19.0.0, SVG Export Plug-In . SVG Version: 6.00 Build 0)  -->
<svg version="1.1" id="Capa_1" xmlns="http://www.w3.org/2000/svg" xmlns:xlink="http://www.w3.org/1999/xlink" x="0px" y="0px"
	 viewBox="0 0 512 512" style="enable-background:new 0 0 512 512;" xml:space="preserve">
<path style="fill:#6F9CFF;" d="M283.589,132.198h90.666c18.944,0,34.302,15.357,34.302,34.301v35.794h-159.27v-35.794
	C249.287,147.555,264.645,132.198,283.589,132.198z"/>
<rect x="235.94" y="202.29" style="fill:#5F81FF;" width="185.96" height="35.636"/>
<rect x="90.1" y="10" style="fill:#E1DDDE;" width="55.718" height="492"/>
<g>
	<rect x="145.81" y="396.4" style="fill:#7C7C7C;" width="40.718" height="53.588"/>
	<rect x="145.81" y="34.947" style="fill:#7C7C7C;" width="40.718" height="53.588"/>
</g>
<path style="fill:#E1DDDE;" d="M315.599,46.805H186.532v29.872H305.31c4.792,0,8.676,3.884,8.676,8.676v46.845h29.872V75.063
	C343.858,59.457,331.206,46.805,315.599,46.805z"/>
<path d="M421.903,192.294h-3.348v-25.795c0-24.428-19.873-44.301-44.301-44.301h-20.398V75.063
	c0-21.096-17.162-38.258-38.258-38.258H196.532v-1.858c0-5.523-4.477-10-10-10h-30.718V10c0-5.523-4.478-10-10-10H90.097
	c-5.522,0-10,4.477-10,10v492c0,5.523,4.478,10,10,10h55.718c5.522,0,10-4.477,10-10v-42.015h20.718v6.52c0,5.523,4.478,10,10,10
	c5.523,0,10-4.477,10-10l0,0v-88.031l0,0c0-5.523-4.477-10-10-10c-5.522,0-10,4.477-10,10v7.923h-20.718V98.535h30.718
	c5.523,0,10-4.477,10-10v-1.858h107.453v35.521h-20.397c-24.428,0-44.302,19.874-44.302,44.301v25.795h-3.348
	c-5.522,0-10,4.477-10,10v35.636c0,5.523,4.478,10,10,10h185.964c5.523,0,10-4.477,10-10v-35.636
	C431.903,196.77,427.426,192.294,421.903,192.294z M135.814,492h-35.718V20h35.718l0,0l0,0V492L135.814,492L135.814,492z
	 M176.532,406.398v33.588h-20.718v-33.588H176.532z M176.532,78.535h-20.718V44.947h20.718v1.858v29.872V78.535z M305.31,66.677
	H196.532v-9.872H315.6c10.067,0,18.258,8.19,18.258,18.258v47.135h-9.872V85.353C323.985,75.055,315.607,66.677,305.31,66.677z
	 M259.287,166.499c0-13.4,10.901-24.301,24.302-24.301l0,0h90.666l0,0c13.399,0,24.301,10.901,24.301,24.301v25.795H259.287V166.499
	z M411.903,227.93H245.939v-15.636l0,0h165.964l0,0V227.93z"/>
<path d="M117.95,139.82c-0.65,0-1.301-0.06-1.95-0.19c-0.641-0.13-1.271-0.32-1.87-0.57s-1.18-0.56-1.73-0.921
	c-0.54-0.37-1.06-0.79-1.52-1.25c-1.86-1.86-2.93-4.44-2.93-7.07c0-0.65,0.069-1.31,0.199-1.95c0.131-0.64,0.32-1.27,0.57-1.87
	c0.25-0.61,0.561-1.19,0.92-1.73c0.36-0.55,0.78-1.06,1.24-1.52s0.979-0.88,1.52-1.24c0.551-0.36,1.131-0.67,1.73-0.92
	s1.229-0.45,1.87-0.57c1.29-0.26,2.62-0.26,3.91,0c0.64,0.12,1.27,0.32,1.87,0.57c0.6,0.25,1.18,0.56,1.73,0.92
	c0.54,0.36,1.05,0.78,1.52,1.24c0.46,0.46,0.869,0.97,1.239,1.52c0.36,0.54,0.67,1.12,0.92,1.73c0.25,0.6,0.44,1.23,0.57,1.87
	s0.2,1.3,0.2,1.95c0,2.63-1.07,5.21-2.93,7.07c-0.471,0.46-0.98,0.88-1.52,1.25c-0.55,0.36-1.13,0.671-1.73,0.921
	c-0.601,0.25-1.23,0.44-1.87,0.57C119.26,139.76,118.609,139.82,117.95,139.82z"/>
<path d="M117.955,392.179c-5.522,0-10-4.477-10-10V168.322c0-5.523,4.478-10,10-10s10,4.477,10,10v213.857
	C127.955,387.702,123.478,392.179,117.955,392.179z"/>
<path style="fill:#93D8F7;" d="M284.644,300.421c0,10.467-8.485,18.952-18.952,18.952s-18.952-8.485-18.952-18.952
	s18.952-30.099,18.952-30.099S284.644,289.955,284.644,300.421z"/>
<path d="M265.692,329.373c-15.964,0-28.951-12.988-28.951-28.952c0-13.092,15.215-30.268,21.756-37.044
	c1.885-1.953,4.481-3.055,7.195-3.055c2.713,0,5.31,1.102,7.194,3.055c6.542,6.777,21.758,23.953,21.758,37.045
	C294.645,316.385,281.656,329.373,265.692,329.373z M265.692,285.52c-5.027,6.343-8.785,12.437-8.952,14.948
	c0.001,4.89,4.017,8.905,8.952,8.905c4.926,0,8.935-3.999,8.952-8.921C274.463,297.932,270.71,291.85,265.692,285.52z"/>
<path style="fill:#93D8F7;" d="M347.873,297.195c0,10.467-8.485,18.952-18.952,18.952s-18.952-8.485-18.952-18.952
	s18.952-30.099,18.952-30.099S347.873,286.728,347.873,297.195z"/>
<path d="M328.922,326.147c-15.964,0-28.952-12.988-28.952-28.952c0-13.092,15.216-30.268,21.758-37.045
	c1.884-1.952,4.482-3.055,7.194-3.055l0,0c2.714,0,5.31,1.103,7.195,3.055c6.541,6.777,21.756,23.953,21.756,37.044
	C357.873,313.159,344.886,326.147,328.922,326.147z M328.916,282.3c-5.025,6.341-8.78,12.431-8.947,14.941
	c0.001,4.89,4.017,8.905,8.953,8.905c4.926,0,8.935-3.999,8.951-8.921C337.693,294.745,333.899,288.608,328.916,282.3z"/>
<path style="fill:#93D8F7;" d="M411.102,300.421c0,10.467-8.485,18.952-18.952,18.952s-18.952-8.485-18.952-18.952
	s18.952-30.099,18.952-30.099S411.102,289.955,411.102,300.421z"/>
<path d="M392.15,329.373c-15.964,0-28.951-12.988-28.951-28.952c0-13.092,15.215-30.268,21.756-37.044
	c1.885-1.953,4.481-3.055,7.195-3.055c2.713,0,5.311,1.102,7.194,3.055c6.542,6.777,21.758,23.953,21.758,37.045
	C421.103,316.385,408.114,329.373,392.15,329.373z M392.15,285.52c-5.027,6.343-8.785,12.437-8.952,14.948
	c0.001,4.89,4.017,8.905,8.952,8.905c4.926,0,8.936-3.999,8.952-8.921C400.921,297.932,397.168,291.85,392.15,285.52z"/>
<path style="fill:#48BFB9;" d="M316.259,368.874c0,10.467-8.485,18.952-18.951,18.952c-10.467,0-18.952-8.485-18.952-18.952
	s18.952-30.1,18.952-30.1S316.259,358.407,316.259,368.874z"/>
<path d="M297.308,397.825c-15.964,0-28.952-12.988-28.952-28.952c0-13.092,15.216-30.268,21.758-37.045
	c1.884-1.952,4.481-3.055,7.194-3.055l0,0c2.714,0,5.311,1.103,7.195,3.055c6.541,6.776,21.756,23.952,21.756,37.044
	C326.259,384.837,313.272,397.825,297.308,397.825z M297.308,353.972c-5.028,6.343-8.786,12.437-8.953,14.948
	c0.001,4.89,4.017,8.905,8.953,8.905c4.926,0,8.935-3.999,8.951-8.921C306.077,366.384,302.325,360.302,297.308,353.972z"/>
<path style="fill:#48BFB9;" d="M379.488,368.874c0,10.467-8.485,18.952-18.952,18.952s-18.952-8.485-18.952-18.952
	s18.952-30.1,18.952-30.1S379.488,358.407,379.488,368.874z"/>
<path d="M360.536,397.825c-15.964,0-28.951-12.988-28.951-28.952c0-13.092,15.215-30.268,21.756-37.044
	c1.885-1.953,4.482-3.055,7.195-3.055c2.714,0,5.311,1.103,7.195,3.055c6.541,6.776,21.756,23.952,21.756,37.044
	C389.487,384.837,376.5,397.825,360.536,397.825z M360.536,353.972c-5.027,6.343-8.785,12.437-8.952,14.948
	c0.001,4.89,4.017,8.905,8.952,8.905c4.926,0,8.935-3.999,8.951-8.921C369.306,366.384,365.554,360.303,360.536,353.972z"/>
<g>
</g>
<g>
</g>
<g>
</g>
<g>
</g>
<g>
</g>
<g>
</g>
<g>
</g>
<g>
</g>
<g>
</g>
<g>
</g>
<g>
</g>
<g>
</g>
<g>
</g>
<g>
</g>
<g>
</g>
</svg>
