<?xml version="1.0" encoding="iso-8859-1"?>
<!-- Generator: Adobe Illustrator 19.0.0, SVG Export Plug-In . SVG Version: 6.00 Build 0)  -->
<svg version="1.1" id="Capa_1" xmlns="http://www.w3.org/2000/svg" xmlns:xlink="http://www.w3.org/1999/xlink" x="0px" y="0px"
	 viewBox="0 0 204.8 204.8" style="enable-background:new 0 0 204.8 204.8;" xml:space="preserve">
<path style="fill:#997843;" d="M92.295,199.68H69.736l8.175-33.055c1.019-4.118,1.193-8.399,0.514-12.585l-5.868-36.14h14.099
	l7.016,41.699c1.152,4.224,1.41,8.643,0.754,12.972L92.295,199.68z"/>
<path d="M92.295,203.093H69.736c-1.05,0-2.039-0.483-2.688-1.311c-0.647-0.826-0.877-1.903-0.625-2.924l8.173-33.055
	c0.913-3.69,1.067-7.463,0.457-11.218l-5.868-36.142c-0.16-0.986,0.121-1.997,0.77-2.76c0.649-0.759,1.599-1.2,2.599-1.2h14.099
	c1.667,0,3.091,1.203,3.367,2.847l7.016,41.699c1.212,4.381,1.493,9.218,0.763,14.051l-2.103,26.865
	C95.558,201.723,94.077,203.093,92.295,203.093z M74.097,196.266h15.043l1.884-23.962c0.614-4.13,0.389-8.021-0.645-11.81
	l-6.608-39.183h-7.202l5.226,32.183c0.756,4.668,0.565,9.361-0.57,13.95L74.097,196.266z"/>
<path style="fill:#997843;" d="M124.07,199.68h-20.2l3.907-33.055c0.911-4.118,1.068-8.399,0.459-12.585l-1.84-36.14h12.624
	l2.869,41.699c1.031,4.224,1.261,8.643,0.676,12.972L124.07,199.68z"/>
<path d="M124.07,203.093h-20.2c-0.975,0-1.903-0.416-2.551-1.147c-0.647-0.727-0.952-1.7-0.838-2.668l3.905-33.055
	c0.014-0.113,0.034-0.227,0.058-0.34c0.826-3.731,0.966-7.55,0.413-11.354l-1.87-36.46c-0.048-0.934,0.29-1.847,0.934-2.524
	c0.645-0.679,1.539-1.063,2.475-1.063h12.624c1.795,0,3.282,1.391,3.405,3.18l2.848,41.412c1.055,4.47,1.297,9.047,0.715,13.621
	l1.49,26.791c0.051,0.937-0.283,1.853-0.928,2.536C125.904,202.706,125.008,203.093,124.07,203.093z M107.709,196.266h12.752
	l-1.307-23.504c-0.012-0.217-0.003-0.434,0.027-0.647c0.532-3.934,0.326-7.875-0.608-11.708c-0.046-0.189-0.077-0.381-0.09-0.577
	l-2.65-38.519h-5.847l1.657,32.555c0.633,4.253,0.474,8.837-0.498,13.324L107.709,196.266z"/>
<path style="fill:#84D839;" d="M149.953,7.917c-10.448-5.2-23.066,0.048-28.182,11.72c-0.362,0.826-0.664,1.662-0.934,2.505
	c-3.637-3.183-8.245-5.35-14.314-5.072c-8.327,0.381-16.317,5.456-20.308,13.638c-5.786,11.863-2.282,25.935,7.419,32.591
	c-4.082,3.893-7.255,9.161-8.728,15.628c-2.644,11.614,1.635,23.878,10.554,30.235c9.83,7.006,21.975,5.584,30.597-1.724
	c2.874,5.589,1.026,8.458,7.298,9.627c11.395,2.123,22.535-6.369,24.881-18.97c0.166-0.891,0.271-1.777,0.343-2.659
	c4.313,2.07,9.353,2.888,15.278,0.884c8.026-2.714,14.647-9.783,16.643-18.724c2.886-12.921-3.729-25.387-14.689-29.102
	c2.104-3.289,3.656-7.067,4.429-11.216c2.227-11.952-2.516-23.426-11.156-29.423c-4.512-3.133-10.243-3.526-15.396-1.446
	L149.953,7.917z"/>
<path d="M136.905,120.804c-1.388,0-2.782-0.13-4.171-0.387c-5.9-1.101-7.183-3.941-8.245-7.543c-0.007-0.027-0.015-0.05-0.022-0.077
	c-9.709,5.977-21.666,5.777-30.985-0.857c-10.081-7.187-14.863-20.758-11.902-33.772c1.241-5.448,3.659-10.397,7.069-14.517
	c-8.899-8.347-11.343-22.461-5.501-34.442c4.458-9.138,13.353-15.097,23.217-15.551c4.705-0.213,9.054,0.85,12.957,3.171
	c3.077-6.067,8.202-10.733,14.261-12.931c5.443-1.976,11.225-1.853,16.447,0.307l2.383-0.961c6.344-2.567,13.303-1.888,18.618,1.804
	c10.054,6.98,14.985,19.874,12.566,32.855c-0.584,3.133-1.575,6.141-2.963,8.97c10.522,5.627,16.109,18.437,13.201,31.466
	c-2.212,9.894-9.446,18.021-18.881,21.212c-4.63,1.563-9.207,1.744-13.646,0.536c-1.497,6.357-5.03,11.901-10.047,15.727
	C146.961,119.091,141.979,120.804,136.905,120.804z M126.06,104.019c0.222,0,0.445,0.02,0.667,0.067
	c1.021,0.203,1.893,0.86,2.369,1.787c1.044,2.033,1.541,3.717,1.942,5.07c0.69,2.34,0.69,2.34,2.946,2.76
	c4.547,0.85,9.216-0.333,13.141-3.319c4.024-3.067,6.782-7.654,7.762-12.914c0.145-0.78,0.232-1.546,0.295-2.314
	c0.09-1.12,0.727-2.123,1.702-2.683c0.975-0.556,2.159-0.613,3.176-0.116c4.139,1.987,8.293,2.22,12.708,0.727
	c7.194-2.43,12.713-8.651,14.406-16.23c2.475-11.081-2.881-21.881-12.454-25.126c-0.995-0.336-1.778-1.113-2.125-2.104
	c-0.348-0.99-0.222-2.084,0.343-2.97c1.956-3.057,3.284-6.42,3.949-10.001c1.927-10.344-1.9-20.548-9.748-25.998
	c-3.42-2.374-7.97-2.784-12.17-1.08l-3.738,1.507c-0.905,0.367-1.925,0.326-2.801-0.106c-3.893-1.94-8.344-2.176-12.518-0.66
	c-4.784,1.734-8.798,5.63-11.015,10.691c-0.314,0.713-0.575,1.44-0.807,2.171c-0.35,1.101-1.229,1.947-2.336,2.253
	c-1.109,0.314-2.299,0.039-3.164-0.717c-3.488-3.053-7.385-4.42-11.911-4.234c-7.366,0.34-14.032,4.83-17.393,11.725
	c-4.912,10.071-2.152,22.496,6.284,28.281c0.848,0.58,1.388,1.514,1.469,2.54c0.084,1.027-0.302,2.033-1.044,2.744
	c-3.835,3.657-6.518,8.47-7.757,13.914c-2.321,10.201,1.463,21.181,9.207,26.699c8.113,5.777,18.476,5.168,26.411-1.55
	C124.476,104.303,125.259,104.019,126.06,104.019z"/>
<path style="fill:#84D839;" d="M64.667,137.298c11.035,3.546,22.856-2.526,26.4-13.561c0.251-0.78,0.44-1.565,0.597-2.35
	c4.021,2.468,8.87,3.919,14.85,3.016c8.204-1.239,15.459-6.658,18.345-14.437c4.185-11.279-1.126-23.543-11.612-28.477
	c3.536-3.937,5.994-9.01,6.608-14.978c1.103-10.718-4.739-21.274-14.409-26.023c-10.66-5.236-22.509-2.649-30.1,4.844
	c-3.579-4.712-2.121-7.489-8.491-7.863c-11.571-0.681-21.502,8.149-22.182,19.721c-0.048,0.819-0.036,1.625,0.009,2.425
	c-4.545-1.394-9.646-1.587-15.259,0.852c-7.601,3.302-13.239,10.365-14.049,18.613c-1.171,11.918,7.013,22.405,18.36,24.561
	c-1.655,3.18-2.7,6.741-2.924,10.552c-0.645,10.976,5.553,20.772,14.903,25.23c4.883,2.328,10.614,2.065,15.449-0.36L64.667,137.298
	z"/>
<path d="M52.941,144.43c-3.016,0-5.996-0.643-8.699-1.934c-10.94-5.217-17.55-16.408-16.838-28.508
	c0.164-2.787,0.713-5.497,1.638-8.107C17.935,101.884,10.784,90.88,11.977,78.74c0.913-9.291,7.078-17.495,16.087-21.408
	c4.352-1.893,8.829-2.543,13.346-1.927c0.724-5.89,3.528-11.247,8.003-15.225c4.871-4.33,11.139-6.49,17.644-6.12
	c5.9,0.346,7.547,2.784,9.085,5.934c0.02,0.043,0.041,0.084,0.061,0.126c8.813-6.484,20.678-7.648,30.749-2.7
	c11.006,5.407,17.556,17.237,16.3,29.438c-0.509,4.948-2.185,9.585-4.9,13.621c9.815,6.67,13.976,19.168,9.708,30.672
	c-3.258,8.788-11.319,15.157-21.035,16.628c-4.634,0.7-9.069,0.193-13.242-1.504c-4.497,11.414-16.891,17.737-28.778,14.674
	l-2.316,1.161C59.612,143.653,56.253,144.43,52.941,144.43z M38.115,62.005c-2.464,0-4.893,0.527-7.33,1.587
	c-6.74,2.93-11.343,8.987-12.015,15.814c-0.985,10.023,5.722,18.999,15.602,20.874c1.062,0.2,1.963,0.893,2.435,1.864
	c0.469,0.973,0.456,2.109-0.043,3.067c-1.5,2.881-2.357,5.97-2.546,9.177c-0.546,9.317,4.541,17.932,12.964,21.948
	c3.791,1.807,8.441,1.679,12.448-0.329l3.512-1.76c0.8-0.399,1.722-0.469,2.572-0.196c9.233,2.951,19.144-2.133,22.106-11.358
	c0.208-0.65,0.369-1.307,0.498-1.966c0.215-1.097,0.956-2.017,1.978-2.466c1.026-0.444,2.203-0.364,3.156,0.217
	c3.913,2.403,8.016,3.253,12.554,2.55c7.262-1.097,13.261-5.791,15.655-12.247c3.521-9.491-0.72-19.898-9.865-24.206
	c-0.976-0.457-1.678-1.353-1.891-2.41c-0.215-1.06,0.085-2.154,0.807-2.958c3.258-3.63,5.246-8.141,5.751-13.047
	c0.951-9.225-4.198-18.524-12.52-22.612c-8.899-4.374-19.181-2.72-26.197,4.21c-0.7,0.689-1.662,1.039-2.64,0.973
	c-0.98-0.067-1.882-0.556-2.476-1.34c-1.319-1.737-2.072-3.277-2.621-4.4c-0.963-1.976-0.963-1.976-3.352-2.116
	c-4.687-0.28-9.201,1.287-12.706,4.407c-3.509,3.12-5.591,7.417-5.868,12.104c-0.039,0.686-0.029,1.364,0.01,2.033
	c0.061,1.116-0.425,2.193-1.304,2.881c-0.881,0.689-2.036,0.899-3.108,0.577C41.791,62.293,39.943,62.005,38.115,62.005z"/>
<path d="M201.387,203.093H3.413c-1.884,0-3.413-1.527-3.413-3.413c0-1.888,1.529-3.413,3.413-3.413h197.973
	c1.884,0,3.413,1.527,3.413,3.413C204.8,201.566,203.271,203.093,201.387,203.093z"/>
<path style="fill:#84D839;" d="M53.41,67.138c0,0,12.189,13.839-8.46,19.741"/>
<path d="M44.95,90.293c-1.485,0-2.852-0.976-3.28-2.476c-0.519-1.811,0.532-3.7,2.343-4.221c3.736-1.067,8.395-3.029,9.361-6.33
	c1.053-3.594-2.488-7.83-2.524-7.871c-1.244-1.417-1.108-3.574,0.305-4.816c1.417-1.253,3.57-1.116,4.818,0.304
	c0.249,0.283,6.086,7.025,3.953,14.304c-1.48,5.043-6.202,8.736-14.037,10.977C45.577,90.248,45.261,90.293,44.95,90.293z"/>
<path style="fill:#997843;" d="M135.88,199.68h17.01l-2.751-24.926c-0.768-3.104-0.899-6.333-0.387-9.491l1.01-27.252h-10.633
	l-3.596,27.534c-0.869,3.185-2.755,10.428-2.261,13.693L135.88,199.68z"/>
<path d="M152.89,203.093h-17.01c-1.782,0-3.263-1.37-3.403-3.147l-1.606-20.441c-0.398-2.587,0.326-7.313,2.309-14.635l3.569-27.302
	c0.224-1.7,1.671-2.97,3.384-2.97h10.631c0.927,0,1.814,0.377,2.458,1.043c0.643,0.671,0.986,1.57,0.954,2.497l-1.01,27.252
	c-0.007,0.14-0.02,0.283-0.043,0.42c-0.442,2.717-0.329,5.451,0.331,8.124c0.036,0.147,0.063,0.297,0.08,0.447l2.749,24.924
	c0.106,0.963-0.203,1.927-0.85,2.65C154.784,202.68,153.859,203.093,152.89,203.093z M139.035,196.266h10.045l-2.309-20.919
	c-0.817-3.43-0.959-6.934-0.422-10.414l0.872-23.508h-4.093l-3.21,24.562c-0.02,0.154-0.051,0.304-0.092,0.454
	c-2.342,8.596-2.304,11.457-2.178,12.288L139.035,196.266z"/>
<path style="fill:#84D839;" d="M125.025,150.14c6.784,5.511,16.751,4.477,22.262-2.309c0.389-0.48,0.737-0.98,1.063-1.488
	c2.15,2.833,5.161,5.18,9.61,6.18c6.103,1.374,12.684-0.449,16.84-5.127c6.025-6.782,5.647-16.852-0.37-23.188
	c3.562-1.799,6.676-4.692,8.74-8.718c3.707-7.229,2.488-16.246-3.009-22.229c-6.059-6.595-15.094-8.02-22.477-4.83
	c-1.225-4.289,0.556-5.842-3.816-7.847c-7.945-3.644-17.338-0.155-20.982,7.789c-0.258,0.561-0.469,1.133-0.657,1.707
	c-2.813-2.224-6.344-3.755-10.955-3.575c-6.245,0.241-12.138,3.663-14.962,9.236c-4.082,8.054-1.2,17.662,6.185,22.281
	c-2.033,1.782-3.741,3.999-4.941,6.615c-3.456,7.537-1.778,16.116,3.57,21.806c2.794,2.971,6.893,4.354,10.953,3.973L125.025,150.14
	z"/>
<path d="M134.984,157.086c-3.809,0-7.641-1.123-10.95-3.427l-1.633,0.157c-5.202,0.469-10.342-1.396-13.761-5.036
	c-6.497-6.907-8.141-16.944-4.186-25.566c0.795-1.734,1.79-3.343,2.97-4.816c-6.508-6.137-8.364-15.898-4.157-24.202
	c3.323-6.55,10.173-10.803,17.877-11.1c3.447-0.183,6.661,0.539,9.609,2.01c2.237-3.763,5.663-6.627,9.825-8.173
	c4.816-1.78,10.044-1.594,14.715,0.55c3.992,1.83,4.854,4.021,5.158,6.48c7.997-1.79,16.519,0.78,22.224,6.99
	c6.492,7.067,7.912,17.555,3.531,26.095c-1.645,3.214-3.949,5.948-6.77,8.057c4.801,7.607,4.135,17.558-2.086,24.559
	c-4.896,5.511-12.614,7.875-20.14,6.19c-3.318-0.748-6.221-2.196-8.672-4.323C144.84,155.194,139.928,157.086,134.984,157.086z
	 M125.025,146.725c0.78,0,1.541,0.266,2.152,0.763c5.313,4.32,13.146,3.507,17.459-1.811c0.304-0.374,0.577-0.77,0.833-1.171
	c0.601-0.944,1.623-1.531,2.738-1.577c1.096-0.056,2.183,0.454,2.859,1.347c1.968,2.594,4.466,4.2,7.641,4.913
	c5.038,1.13,10.346-0.466,13.541-4.064c4.78-5.381,4.654-13.361-0.294-18.572c-0.744-0.783-1.074-1.87-0.889-2.934
	s0.862-1.976,1.826-2.463c3.12-1.577,5.623-4.074,7.238-7.228c3.033-5.917,2.012-13.467-2.483-18.362
	c-4.813-5.238-12.117-6.813-18.61-4.007c-0.899,0.393-1.925,0.374-2.813-0.05c-0.889-0.42-1.551-1.2-1.821-2.144
	c-0.474-1.664-0.587-3-0.669-3.973c-0.032-0.387-0.075-0.906-0.126-1.08c-0.002,0-0.002,0-0.002,0c-0.031,0-0.312-0.244-1.161-0.63
	c-3.014-1.384-6.381-1.51-9.494-0.353c-3.106,1.154-5.581,3.447-6.96,6.46c-0.203,0.444-0.37,0.891-0.517,1.34
	c-0.345,1.063-1.188,1.888-2.258,2.21c-1.067,0.326-2.227,0.104-3.103-0.59c-2.579-2.036-5.419-2.963-8.706-2.84
	c-5.233,0.203-9.849,3.024-12.052,7.368c-3.236,6.383-1.108,14.054,4.949,17.845c0.915,0.57,1.505,1.543,1.592,2.62
	c0.087,1.073-0.34,2.127-1.152,2.84c-1.751,1.536-3.127,3.378-4.087,5.473c-2.792,6.084-1.632,13.167,2.953,18.045
	c1.99,2.113,5.048,3.238,8.149,2.91l2.944-0.276C124.812,146.729,124.918,146.725,125.025,146.725z"/>
<path style="fill:#84D839;" d="M133.12,39.243c0,0,0,10.24,13.653,6.827"/>
<path d="M141.699,50.179c-3.142,0-5.765-0.811-7.839-2.43c-4.038-3.154-4.156-7.967-4.156-8.508c0-1.888,1.529-3.413,3.413-3.413
	c1.872,0,3.389,1.507,3.413,3.371c0.005,0.116,0.116,2.101,1.572,3.203c1.505,1.133,4.219,1.263,7.84,0.357
	c1.828-0.463,3.681,0.65,4.14,2.483c0.457,1.826-0.655,3.68-2.483,4.137C145.468,49.913,143.5,50.179,141.699,50.179z
	 M136.533,39.243h0.034H136.533z"/>
<path style="fill:#84D839;" d="M139.438,135.589c0,0-5.07-13.032-11.609-10.604"/>
<path d="M139.44,139.003c-1.365,0-2.654-0.826-3.181-2.171c-1.582-4.033-5.193-9.445-7.24-8.648
	c-1.763,0.664-3.732-0.244-4.388-2.014c-0.657-1.766,0.246-3.731,2.012-4.386c9.407-3.514,15.334,10.914,15.978,12.568
	c0.681,1.753-0.186,3.727-1.94,4.413C140.271,138.926,139.851,139.003,139.44,139.003z"/>
<g>
</g>
<g>
</g>
<g>
</g>
<g>
</g>
<g>
</g>
<g>
</g>
<g>
</g>
<g>
</g>
<g>
</g>
<g>
</g>
<g>
</g>
<g>
</g>
<g>
</g>
<g>
</g>
<g>
</g>
</svg>
